<?xml version="1.0" standalone="no"?>
<!DOCTYPE svg PUBLIC "-//W3C//DTD SVG 20010904//EN"
 "http://www.w3.org/TR/2001/REC-SVG-20010904/DTD/svg10.dtd">
<svg version="1.0" xmlns="http://www.w3.org/2000/svg"
 width="512.000000pt" height="512.000000pt" viewBox="0 0 512.000000 512.000000"
 preserveAspectRatio="xMidYMid meet">
<metadata>
Created by potrace 1.11, written by Peter Selinger 2001-2013
</metadata>
<g transform="translate(0.000000,512.000000) scale(0.100000,-0.100000)"
fill="#000000" stroke="none">
<path d="M3 2565 l0 -1922 492 0 493 0 -2 751 -1 752 1565 -2 c861 -1 1567 -2
1570 -3 3 0 5 -333 5 -738 -1 -406 1 -743 2 -749 3 -8 148 -11 493 -11 472 0
490 0 491 18 0 25 0 3783 0 3807 -1 17 -25 18 -488 18 -269 1 -490 -3 -493 -7
-3 -4 -5 -341 -5 -749 1 -408 -3 -744 -7 -746 -11 -7 -3119 -6 -3126 1 -3 2
-5 342 -4 753 l0 748 -492 0 -493 1 0 -1922z"/>
</g>
</svg>
