<?xml version="1.0" encoding="iso-8859-1"?>
<!-- Generator: Adobe Illustrator 19.0.0, SVG Export Plug-In . SVG Version: 6.00 Build 0)  -->
<svg version="1.1" id="Capa_1" xmlns="http://www.w3.org/2000/svg" xmlns:xlink="http://www.w3.org/1999/xlink" x="0px" y="0px"
	 viewBox="0 0 512 512" style="enable-background:new 0 0 512 512;" xml:space="preserve">
<g>
	<g>
		<g>
			<path d="M464,0H48C21.49,0,0,21.49,0,48v416c0,26.51,21.49,48,48,48h416c26.51,0,48-21.49,48-48V48C512,21.49,490.51,0,464,0z
				 M480,464c0,8.837-7.163,16-16,16H48c-8.837,0-16-7.163-16-16V160h448V464z M480,128H32V48c0-8.837,7.163-16,16-16h416
				c8.837,0,16,7.163,16,16V128z"/>
			<rect x="64" y="64" width="32" height="32"/>
			<rect x="128" y="64" width="32" height="32"/>
			<rect x="416" y="64" width="32" height="32"/>
			<path d="M164.64,395.36l22.56-22.56L134.56,320l52.64-52.64l-22.56-22.56l-64,64c-6.204,6.241-6.204,16.319,0,22.56
				L164.64,395.36z"/>
			<path d="M347.36,395.36l64-64c6.204-6.241,6.204-16.319,0-22.56l-64-64l-22.56,22.56L377.44,320l-52.64,52.64L347.36,395.36z"/>
			<rect x="240.016" y="234.008" transform="matrix(0.9284 0.3715 -0.3715 0.9284 137.278 -72.2005)" width="32" height="172.32"/>
		</g>
	</g>
</g>
<g>
</g>
<g>
</g>
<g>
</g>
<g>
</g>
<g>
</g>
<g>
</g>
<g>
</g>
<g>
</g>
<g>
</g>
<g>
</g>
<g>
</g>
<g>
</g>
<g>
</g>
<g>
</g>
<g>
</g>
</svg>
