<svg id="_x31__x2C_5" enable-background="new 0 0 24 24" height="512" viewBox="0 0 24 24" width="512" xmlns="http://www.w3.org/2000/svg"><path d="m18.5 7.25h-15c-1.519 0-2.75-1.231-2.75-2.75 0-1.519 1.231-2.75 2.75-2.75h15c1.519 0 2.75 1.231 2.75 2.75 0 1.519-1.231 2.75-2.75 2.75z" fill="#cfd8dc"/><path d="m18.5 12.75h-15c-1.519 0-2.75-1.231-2.75-2.75 0-1.519 1.231-2.75 2.75-2.75h15c1.519 0 2.75 1.231 2.75 2.75 0 1.519-1.231 2.75-2.75 2.75z" fill="#90a4ae"/><path d="m18.5 18.25h-15c-1.519 0-2.75-1.231-2.75-2.75 0-1.519 1.231-2.75 2.75-2.75h15c1.519 0 2.75 1.231 2.75 2.75 0 1.519-1.231 2.75-2.75 2.75z" fill="#cfd8dc"/><path d="m18.5 8h-15c-1.93 0-3.5-1.57-3.5-3.5s1.57-3.5 3.5-3.5h15c1.93 0 3.5 1.57 3.5 3.5s-1.57 3.5-3.5 3.5zm-15-5.5c-1.103 0-2 .897-2 2s.897 2 2 2h15c1.103 0 2-.897 2-2s-.897-2-2-2z"/><circle cx="5" cy="4.5" r="1"/><circle cx="9" cy="4.5" r="1"/><path d="m10.25 13.5h-6.75c-1.93 0-3.5-1.57-3.5-3.5 0-.929.377-1.831 1.035-2.476.633-.647 1.536-1.024 2.465-1.024h15c1.93 0 3.5 1.57 3.5 3.5 0 .097-.004.193-.023.292-.079.407-.476.675-.878.595-.407-.078-.673-.472-.595-.878-.004-1.112-.901-2.009-2.004-2.009h-15c-.536 0-1.035.208-1.404.584-.388.381-.596.88-.596 1.416 0 1.103.897 2 2 2h6.75c.414 0 .75.336.75.75s-.336.75-.75.75z"/><circle cx="5" cy="10" r="1"/><circle cx="9" cy="10" r="1"/><path d="m9.465 19h-5.884c-1.974 0-3.581-1.57-3.581-3.5 0-.929.386-1.831 1.059-2.476.648-.647 1.572-1.024 2.522-1.024h6.651c.424 0 .768.336.768.75s-.344.75-.767.75h-6.652c-.548 0-1.059.208-1.437.584-.397.381-.61.88-.61 1.416 0 1.103.918 2 2.047 2h5.884c.424 0 .767.336.767.75s-.343.75-.767.75z"/><circle cx="5" cy="15.5" r="1"/><circle cx="9" cy="15.5" r="1"/><path d="m18 24c-3.309 0-6-2.691-6-6 0-.414.336-.75.75-.75s.75.336.75.75c0 2.481 2.019 4.5 4.5 4.5s4.5-2.019 4.5-4.5-2.019-4.5-4.5-4.5c-1.258 0-2.363.482-3.196 1.396-.279.307-.754.328-1.06.048-.306-.279-.328-.753-.049-1.06 1.11-1.215 2.638-1.884 4.305-1.884 3.309 0 6 2.691 6 6s-2.691 6-6 6z"/><path d="m15.946 15.75h-2.196c-.414 0-.75-.336-.75-.75v-2.25c0-.414.336-.75.75-.75s.75.336.75.75v1.5h1.446c.414 0 .75.336.75.75s-.336.75-.75.75z"/></svg>