<svg id="Distributed" height="512" viewBox="0 0 64 64" width="512" xmlns="http://www.w3.org/2000/svg"><path d="m24 24h16v16h-16z" fill="#57565c"/><path d="m2 2h16v16h-16z" fill="#57565c"/><path d="m46 46h16v16h-16z" fill="#57565c"/><path d="m46 2h16v16h-16z" fill="#3d9ae2" transform="matrix(0 1 -1 0 64 -44)"/><path d="m2 46h16v16h-16z" fill="#3d9ae2" transform="matrix(0 1 -1 0 64 44)"/><g fill="#ffda44"><path d="m30 8h4v4h-4z"/><path d="m30 52h4v4h-4z" transform="matrix(-1 0 0 -1 64 108)"/><path d="m8 30h4v4h-4z" transform="matrix(0 -1 1 0 -22 42)"/><path d="m52 30h4v4h-4z" transform="matrix(0 1 -1 0 86 -22)"/><circle cx="32" cy="32" r="2"/><circle cx="10" cy="10" r="2"/><circle cx="10" cy="54" r="2"/><circle cx="54" cy="10" r="2"/><circle cx="54" cy="54" r="2"/></g><path d="m40 41h-16a1 1 0 0 1 -1-1v-16a1 1 0 0 1 1-1h16a1 1 0 0 1 1 1v16a1 1 0 0 1 -1 1zm-15-2h14v-14h-14z"/><path d="m18 19h-16a1 1 0 0 1 -1-1v-16a1 1 0 0 1 1-1h16a1 1 0 0 1 1 1v16a1 1 0 0 1 -1 1zm-15-2h14v-14h-14z"/><path d="m62 63h-16a1 1 0 0 1 -1-1v-16a1 1 0 0 1 1-1h16a1 1 0 0 1 1 1v16a1 1 0 0 1 -1 1zm-15-2h14v-14h-14z"/><path d="m62 19h-16a1 1 0 0 1 -1-1v-16a1 1 0 0 1 1-1h16a1 1 0 0 1 1 1v16a1 1 0 0 1 -1 1zm-15-2h14v-14h-14z"/><path d="m18 63h-16a1 1 0 0 1 -1-1v-16a1 1 0 0 1 1-1h16a1 1 0 0 1 1 1v16a1 1 0 0 1 -1 1zm-15-2h14v-14h-14z"/><path d="m34 13h-4a1 1 0 0 1 -1-1v-4a1 1 0 0 1 1-1h4a1 1 0 0 1 1 1v4a1 1 0 0 1 -1 1zm-3-2h2v-2h-2z"/><path d="m32 24a1 1 0 0 1 -1-1v-10a1 1 0 0 1 2 0v10a1 1 0 0 1 -1 1z"/><path d="m45 11h-10a1 1 0 0 1 0-2h10a1 1 0 0 1 0 2z"/><path d="m34 57h-4a1 1 0 0 1 -1-1v-4a1 1 0 0 1 1-1h4a1 1 0 0 1 1 1v4a1 1 0 0 1 -1 1zm-3-2h2v-2h-2z"/><path d="m32 52a1 1 0 0 1 -1-1v-10a1 1 0 0 1 2 0v10a1 1 0 0 1 -1 1z"/><path d="m29 55h-10a1 1 0 0 1 0-2h10a1 1 0 0 1 0 2z"/><path d="m12 35h-4a1 1 0 0 1 -1-1v-4a1 1 0 0 1 1-1h4a1 1 0 0 1 1 1v4a1 1 0 0 1 -1 1zm-3-2h2v-2h-2z"/><path d="m23 33h-10a1 1 0 0 1 0-2h10a1 1 0 0 1 0 2z"/><path d="m10 30a1 1 0 0 1 -1-1v-10a1 1 0 0 1 2 0v10a1 1 0 0 1 -1 1z"/><path d="m56 35h-4a1 1 0 0 1 -1-1v-4a1 1 0 0 1 1-1h4a1 1 0 0 1 1 1v4a1 1 0 0 1 -1 1zm-3-2h2v-2h-2z"/><path d="m51 33h-10a1 1 0 0 1 0-2h10a1 1 0 0 1 0 2z"/><path d="m54 46a1 1 0 0 1 -1-1v-10a1 1 0 0 1 2 0v10a1 1 0 0 1 -1 1z"/><path d="m32 35a3 3 0 1 1 3-3 3 3 0 0 1 -3 3zm0-4a1 1 0 1 0 1 1 1 1 0 0 0 -1-1z"/><path d="m10 13a3 3 0 1 1 3-3 3 3 0 0 1 -3 3zm0-4a1 1 0 1 0 1 1 1 1 0 0 0 -1-1z"/><path d="m10 57a3 3 0 1 1 3-3 3 3 0 0 1 -3 3zm0-4a1 1 0 1 0 1 1 1 1 0 0 0 -1-1z"/><path d="m54 13a3 3 0 1 1 3-3 3 3 0 0 1 -3 3zm0-4a1 1 0 1 0 1 1 1 1 0 0 0 -1-1z"/><path d="m54 57a3 3 0 1 1 3-3 3 3 0 0 1 -3 3zm0-4a1 1 0 1 0 1 1 1 1 0 0 0 -1-1z"/><path d="m55 60h-6a1 1 0 0 1 0-2h6a1 1 0 0 1 0 2z"/><path d="m59 60h-1a1 1 0 0 1 0-2h1a1 1 0 0 1 0 2z"/></svg>